<?xml version="1.0" encoding="utf-8"?>
<!-- Generator: Adobe Illustrator 24.0.0, SVG Export Plug-In . SVG Version: 6.00 Build 0)  -->
<svg version="1.1" xmlns="http://www.w3.org/2000/svg" xmlns:xlink="http://www.w3.org/1999/xlink" x="0px" y="0px"
	 viewBox="0 0 752.4 752.4" style="enable-background:new 0 0 752.4 752.4;" xml:space="preserve">
<style type="text/css">
	.st0{fill:#FFFFFF;stroke:#FFFFFF;stroke-width:10;stroke-miterlimit:10;}
	.st1{fill:#FFFFFF;stroke:#FFFFFF;stroke-width:2;stroke-miterlimit:10;}
	.st2{fill:#FFFFFF;}
	.st3{fill:#490504;}
	.st4{fill:#930A02;}
	.st5{fill:#670802;}
</style>
<g id="fondo">
</g>
<g id="sombra">
</g>
<g id="circulo_blanco">
</g>
<g id="linea_circulo">
</g>
<g id="tattoo">
</g>
<g id="sofia">
</g>
<g id="maquina">
	<circle cx="374.8" cy="377" r="376.6"/>
	<g>
		
			<rect x="277.4" y="433.4" transform="matrix(6.123234e-17 -1 1 6.123234e-17 -174.1154 744.4187)" class="st0" width="15.5" height="51.8"/>
		
			<rect x="376.3" y="435.3" transform="matrix(6.123234e-17 -1 1 6.123234e-17 -75.1579 843.3762)" class="st0" width="15.5" height="48"/>
		<g>
			<path class="st0" d="M169.6,505.1v-15.3H228v15.3h-23.8v141.1h-10.9V505.1H169.6z"/>
			<path class="st0" d="M270.7,480.6l40.4,86.6h-9.3l-13.6-28.5h-37.3l-13.5,28.5h-9.7l40.9-86.6H270.7z M269.6,499l-14.8,31.3h29.6
				L269.6,499z"/>
			<path class="st0" d="M363.6,524.3v-10.4H422v10.4h-23.8v96.1h-10.9v-96.1H363.6z"/>
			<path class="st0" d="M574,501.3c9.5,0,17.4,3.2,23.8,9.5c6.4,6.3,9.6,14.1,9.6,23.4c0,9.2-3.2,17-9.6,23.3
				c-6.4,6.4-14.2,9.6-23.3,9.6c-9.3,0-17.1-3.2-23.5-9.5c-6.4-6.4-9.6-14.1-9.6-23.1c0-6,1.5-11.6,4.4-16.7
				c2.9-5.1,6.9-9.2,11.9-12.1C562.7,502.8,568.1,501.3,574,501.3z M574.2,507.4c-4.6,0-9,1.2-13.2,3.6c-4.2,2.4-7.4,5.7-9.7,9.8
				c-2.3,4.1-3.5,8.7-3.5,13.7c0,7.4,2.6,13.7,7.7,18.9c5.2,5.1,11.4,7.7,18.7,7.7c4.9,0,9.4-1.2,13.5-3.5c4.1-2.4,7.4-5.6,9.7-9.7
				c2.3-4.1,3.5-8.6,3.5-13.6c0-5-1.2-9.5-3.5-13.5c-2.3-4-5.6-7.2-9.8-9.7C583.4,508.6,579,507.4,574.2,507.4z"/>
			<g>
				<path class="st0" d="M472.9,523.9c16.1,0,29.6,5.4,40.5,16.1c10.9,10.8,16.3,24,16.3,39.8c0,15.6-5.4,28.8-16.3,39.7
					c-10.8,10.9-24.1,16.3-39.7,16.3c-15.8,0-29.1-5.4-40-16.2s-16.3-23.9-16.3-39.2c0-10.2,2.5-19.7,7.4-28.5
					c5-8.7,11.7-15.6,20.3-20.5C453.7,526.4,463,523.9,472.9,523.9z M473.4,534.2c-7.9,0-15.4,2.1-22.4,6.2
					c-7.1,4.1-12.6,9.6-16.5,16.6c-4,7-5.9,14.7-5.9,23.3c0,12.7,4.4,23.3,13.2,32.1c8.8,8.7,19.4,13.1,31.7,13.1c8.3,0,15.9-2,23-6
					c7-4,12.5-9.5,16.5-16.5c3.9-7,5.9-14.7,5.9-23.2c0-8.5-2-16.1-5.9-22.9c-3.9-6.8-9.5-12.3-16.6-16.4
					C489,536.3,481.4,534.2,473.4,534.2z"/>
				<path class="st1" d="M524,606.4c0,0-12.1,19.2-5.3,27.6c6.9,8.4-12.5,19.4-14.5,7.1c-1.9-12.3,5.8-25.2,5.8-25.2L524,606.4z"/>
			</g>
		</g>
		<g>
			<path class="st0" d="M146.5,434.6l13.2-7.9c9.3,17.1,20.1,25.7,32.3,25.7c5.2,0,10.1-1.2,14.7-3.6c4.6-2.4,8.1-5.7,10.5-9.8
				c2.4-4.1,3.6-8.4,3.6-13c0-5.2-1.8-10.3-5.3-15.3c-4.9-6.9-13.8-15.2-26.7-25c-13-9.8-21-16.9-24.2-21.3
				c-5.5-7.3-8.3-15.3-8.3-23.8c0-6.8,1.6-12.9,4.9-18.5c3.2-5.6,7.8-10,13.7-13.2c5.9-3.2,12.3-4.8,19.2-4.8
				c7.3,0,14.2,1.8,20.6,5.4c6.4,3.6,9.9,6,17,15.8l-9.4,13.9c-5.9-7.8-10.8-12.9-15-15.3c-4.1-2.5-8.6-3.7-13.5-3.7
				c-6.3,0-11.4,1.9-15.4,5.7c-4,3.8-6,8.5-6,14.1c0,3.4,0.7,6.7,2.1,9.8c1.4,3.2,4,6.6,7.7,10.4c2,2,8.7,7.2,20.1,15.5
				c13.5,9.9,22.7,18.8,27.7,26.5c5,7.8,7.5,15.5,7.5,23.4c0,11.3-4.3,21.1-12.9,29.4c-8.6,8.3-19,12.5-31.3,12.5
				c-9.5,0-18-2.5-25.7-7.6C160.1,454.9,153,446.4,146.5,434.6z"/>
			<path class="st0" d="M273.7,325.5c11,0,20.2,3.7,27.6,11c7.4,7.3,11.1,16.3,11.1,27.1c0,10.6-3.7,19.6-11.1,27
				c-7.4,7.4-16.4,11.1-27,11.1c-10.8,0-19.8-3.7-27.2-11c-7.4-7.4-11.1-16.3-11.1-26.7c0-7,1.7-13.4,5.1-19.4
				c3.4-5.9,8-10.6,13.8-14C260.6,327.2,266.9,325.5,273.7,325.5z M274,332.6c-5.4,0-10.4,1.4-15.3,4.2c-4.8,2.8-8.6,6.6-11.3,11.3
				c-2.7,4.7-4,10-4,15.8c0,8.6,3,15.9,9,21.8c6,5.9,13.2,8.9,21.6,8.9c5.6,0,10.8-1.4,15.6-4.1c4.8-2.7,8.5-6.5,11.2-11.2
				c2.7-4.7,4-10,4-15.8c0-5.8-1.3-11-4-15.6c-2.7-4.7-6.5-8.4-11.3-11.2C284.7,334,279.5,332.6,274,332.6z"/>
			<path class="st0" d="M327.9,309.3h78v15.2h-62.4v48.8h62.4v15.2h-62.4v257.6h-15.5V309.3z"/>
			<path class="st0" d="M438,307h15.5v54.6l-15.5,33V307z"/>
			<path class="st0" d="M502.2,311.4L574.8,467H558l-24.5-51.2h-67L442.3,467h-17.3l73.5-155.6H502.2z M500.3,344.5l-26.7,56.3h53.2
				L500.3,344.5z"/>
		</g>
		<g>
			<path class="st2" d="M612.2,437.9c-0.2,9.9,0.3,19.9,1.2,29.8c0.9,9.9,2.3,19.7,4.3,29.4c2,9.7,4.7,19.3,8.5,28.4
				c3.8,9.1,8.6,17.8,15.2,25c3.3,3.6,7,6.8,11.1,9.3c4.1,2.5,8.7,4.2,13.3,3.9c4.6-0.2,8.9-2.5,12-6c3.1-3.5,5.2-7.9,6.5-12.5
				c1.2-4.6,1.6-9.5,1-14.2c-0.6-4.7-2.1-9.3-4.9-13c-2.7-3.7-6.8-6.3-11.2-7.3c-4.5-1.1-9.3-0.8-14,0.1c-2.3,0.5-4.7,1.1-6.8,2
				c-2.1,0.9-4.1,2.2-5.9,3.6c-3.7,2.9-6.9,6.6-9.9,10.4c-5.9,7.7-10.9,16.3-15.9,24.9c-9.8,17.2-19.1,34.9-30.4,51.5
				c-5.6,8.3-11.8,16.3-18.8,23.6c-7,7.3-14.8,13.9-23.6,19.1c-8.8,5.2-18.6,8.8-28.7,10.4c-10.1,1.6-20.5,1.3-30.5-0.5
				c-2.5-0.5-5-1-7.5-1.6c-2.4-0.6-4.8-1.2-7.2-1.7c-4.8-1.1-9.6-2.1-14.5-2.9c-9.7-1.7-19.5-2.8-29.3-3.1
				c-9.8-0.3-19.6,0.2-29.1,2.2c-9.5,1.9-18.7,5.3-26.4,10.9c-3.8,2.8-7.2,6.2-9.7,10.1c-2.5,3.9-4.2,8.3-4.7,12.9
				c-0.6,4.6-0.1,9.3,1.3,13.7c0.7,2.2,1.6,4.4,2.8,6.4c1.1,2,2.4,4.1,3.9,5.8c1.5,1.7,3.2,3,5,3.5c1.8,0.5,3.7,0.2,5.4-0.8
				c1.7-1,3.2-2.7,4.4-4.6c1.1-1.9,2-4.1,2.5-6.3c1-4.5,0.8-9.2-0.7-13.6c-1.5-4.4-4.3-8.2-7.8-11.2c-3.6-3-7.9-5.2-12.4-6.7
				c-4.5-1.5-9.3-2.4-14.2-2.8c-9.7-0.9-19.6-0.2-29.3,1.2c-4.9,0.7-9.7,1.6-14.6,2.7c-4.8,1-9.6,2.3-14.4,3.5
				c-9.7,2.5-19.5,4.5-29.3,5.9c-9.9,1.4-19.9,2.2-29.9,1.9c-10-0.3-20.1-1.7-29.5-5.1c-2.3-0.9-4.7-1.9-6.9-3
				c-2.2-1.2-4.4-2.5-6.4-3.9c-4.1-2.9-7.7-6.5-10.6-10.6c-2.9-4.1-5.1-8.7-6.5-13.5c-1.4-4.8-2.1-9.8-1.9-14.8
				c-0.1,5,0.7,9.9,2.2,14.6c1.5,4.7,3.8,9.2,6.7,13.1c2.9,3.9,6.5,7.4,10.6,10.2c2,1.4,4.2,2.6,6.4,3.7c2.2,1.1,4.5,2,6.8,2.8
				c9.3,3.2,19.2,4.4,29.1,4.5c9.9,0.1,19.7-0.9,29.5-2.5c9.8-1.6,19.4-3.7,29-6.2c9.6-2.6,19.3-5,29.2-6.6c9.9-1.5,20-2.4,30.1-1.6
				c5.1,0.4,10.1,1.3,15,2.8c4.9,1.6,9.7,3.9,13.7,7.2c4.1,3.3,7.4,7.8,9.2,12.8c1.8,5,2.1,10.6,1,15.8c-0.6,2.6-1.5,5.2-2.9,7.5
				c-1.4,2.4-3.3,4.6-5.8,6.1c-1.3,0.8-2.7,1.4-4.2,1.6c-1.5,0.3-3.1,0.2-4.6-0.3c-3-0.9-5.3-2.8-7.1-4.8c-0.9-1-1.7-2.1-2.4-3.2
				c-0.7-1.1-1.4-2.2-2-3.3c-1.3-2.3-2.3-4.7-3.1-7.2c-1.7-5-2.3-10.4-1.6-15.7c0.6-5.3,2.5-10.4,5.4-14.9
				c2.8-4.5,6.6-8.3,10.8-11.4c4.2-3.1,8.8-5.6,13.6-7.5c4.8-1.9,9.7-3.3,14.7-4.3c10-2,20.2-2.6,30.2-2.3c10.1,0.3,20.1,1.4,30,3.1
				c4.9,0.8,9.9,1.8,14.7,2.9c2.4,0.5,4.9,1.2,7.3,1.7c2.4,0.6,4.7,1.1,7.1,1.5c9.5,1.7,19.3,2,28.8,0.5c9.5-1.5,18.7-4.9,27-9.8
				c8.3-4.9,15.9-11.2,22.6-18.2c6.8-7.1,12.8-14.8,18.4-22.9c11.2-16.2,20.6-33.7,30.5-51c5-8.6,10.1-17.3,16.4-25.2
				c3.2-4,6.6-7.8,10.8-11c2.1-1.6,4.3-3,6.8-4c1.2-0.5,2.6-0.9,3.8-1.3c1.2-0.3,2.5-0.6,3.8-0.9c5-1,10.4-1.3,15.6,0
				c2.6,0.7,5.1,1.7,7.3,3.2c2.3,1.5,4.2,3.4,5.8,5.6c3.2,4.3,4.8,9.5,5.4,14.7c0.6,5.2,0.1,10.4-1.3,15.4c-1.4,5-3.7,9.8-7.3,13.7
				c-1.8,1.9-3.9,3.6-6.3,4.8c-2.4,1.2-5.1,1.9-7.8,2c-5.4,0.2-10.5-1.8-14.8-4.5c-4.4-2.7-8.2-6.1-11.5-9.9
				c-6.7-7.6-11.5-16.7-15.1-26c-3.6-9.3-6.1-19-8-28.8C612.7,477.8,611.5,457.8,612.2,437.9z"/>
		</g>
		<path class="st3" d="M569.7,345.2c-16.6-0.7-25.8-6.8-31-18.6c-10.9-25-21.6-50.2-36.9-73c-2.1-3.2-3.5-7.4-3.7-11.3
			c-0.4-5.7-0.7-11.9,1.2-17.1c4.7-13.5,15.5-22.5,27.3-29.4c9.9-5.7,24-1,31.8,10.4c12.8,18.4,24.9,37.2,36.6,56.3
			c6.3,10.3,11.4,21.3,16.9,32.1c10.1,19.8,3.5,35.8-17.6,42.6C585,340.2,575.8,343.2,569.7,345.2z"/>
		<path class="st4" d="M375,265.1c-5.7,10.2-10.8,19.7-16.1,29c-0.9,1.5-3.2,3.7-4.2,3.4c-1.8-0.6-4.1-2.7-4.3-4.4
			c-0.4-3.4-0.7-7.5,0.9-10.3c21.6-38.9,43.5-77.7,65.5-116.5c2.7-4.8,7.1-5.1,11.1-1.4c1.8,1.7,3.3,3.6,5.4,5.9
			c1.3-1.7,2.6-3.1,3.7-4.7c11.4-15.8,22.7-31.7,34.2-47.5c5.7-7.8,12.7-9.9,21.8-7.1c17.9,5.5,28.6,31,13.4,47.2
			c-36.1,38.4-69.4,79.3-100.5,122c-5.7,7.8-12.5,8.1-18.9,0.6C382.9,276.6,379.4,271.1,375,265.1z"/>
		<path class="st5" d="M329.2,121.3c4.2-11.7,7.4-22.2,11.7-32.2c2.3-5.2,9-4.9,14.4,0.2c10.7,10.2,21.3,20.6,31.8,31.1
			c6.5,6.5,12.8,13.2,19.1,20c5.6,6,6.2,10.9,2.2,18.4c-4.2,7.7-8.6,15.2-13.2,22.7c-4.3,7.1-10,7.8-15.9,1.7
			c-5-5.2-9.3-10.9-14.2-16.2c-8.8-9.6-18-18.8-26.3-28.8C334.7,133.1,332.3,126.8,329.2,121.3z"/>
		<path class="st5" d="M295.9,255.7c-11.5-6.7-20.6-14.7-20.9-28.3c-0.2-7.1,1.4-14.2,2.4-21.3c1.1-7.1,2.2-14.2,3.9-21.1
			c2-8.4,8.9-10.8,14.2-4.4c18.7,22.3,37,44.9,54.7,68c2.5,3.2,2,10.1,0.6,14.5c-2.2,7.4-6.1,14.4-9.7,21.3c-3.1,6-5.9,6.4-10.8,1.9
			c-0.3-0.3-0.6-0.7-1-0.9c-6.1-4.3-9.3-9.1-7.6-17.7c1.9-9.7-1.3-19.3-8-26.8c-2.5-2.8-7.4-5.4-10.6-4.8c-2.6,0.5-5.1,5.5-6.4,9
			C295.6,248.2,296.2,251.8,295.9,255.7z"/>
		<path class="st4" d="M353.2,26.3c-1,3.5-1.5,5.8-2.3,8.2c-14.3,44.9-28.6,89.8-43.1,134.7c-0.8,2.6-3.4,4.7-5.2,7
			c-2.4-1.9-6-3.3-6.8-5.8c-1.7-4.8-3.6-10.6-2.4-15.3c11.8-45.6,24.2-91.1,36.8-136.5c0.9-3.1,4.2-7.2,6.9-7.6
			c3.3-0.5,7.9,1.7,10.3,4.3C350.4,18.3,351.6,23,353.2,26.3z"/>
		<path class="st5" d="M377.8,208.5c-0.9,3.4-1.3,6.1-2.4,8.5c-3,6.2-6.3,12.4-9.6,18.5c-3.8,6.9-8.6,7.5-13.6,1.2
			c-11.8-14.7-23.5-29.4-34.8-44.4c-4.6-6.1-6.2-13.2-3.7-21c2-6.1,3.6-12.4,5.6-18.6c2.3-7.1,7.6-9,12.6-3.6
			c14.3,15.7,28.3,31.8,41.9,48.1C376.3,200.2,376.6,205,377.8,208.5z"/>
		<path class="st5" d="M439.9,144.2c-10.2-10.2-20.3-20-30.1-30.1c-1.4-1.5-2.5-5.1-1.7-6.6c2.7-4.6-0.3-6.6-2.9-9
			c-16-14.7-31.9-29.5-48-44.1c-2.8-2.5-3.8-4.5-1.9-8c1.4-2.5,2.1-5.3,3.9-9.8c31.9,29.6,63,58.5,94.4,87.6
			C448.6,131.5,444.3,137.8,439.9,144.2z"/>
		<path class="st5" d="M579.6,354.9c8.1-2.6,15.3-4.9,23.4-7.6c6.4,30,9.3,60.1,9.2,90.6C605.1,409.1,595.6,381.1,579.6,354.9z"/>
		<path class="st4" d="M302.5,80.4c-5.3-6.1-12-12.3-16.7-19.8c-3-4.7-3.6-11.3-4.1-17.1c-0.2-2.3,2.4-6,4.7-7.1
			c1.8-0.8,5,1.5,7.6,2.4c0.2,0.1,0.3,0.3,0.5,0.4C309.4,50.4,314.5,63.7,302.5,80.4z"/>
		<path class="st4" d="M298.3,254.3c2.7-4.4,4.3-10.2,7.5-11.2c5.2-1.8,8.5,3.9,9.6,8.3c1.6,6.3,2.6,13.2,2,19.6
			c-0.6,6.2-7.2,7.6-10.7,2.3C303.1,267.7,301.3,261.3,298.3,254.3z"/>
		<path class="st5" d="M485.2,195.4c5.5-6.1,10.7-11.8,16.4-18.2c4.5,5,8.7,9.7,13.2,14.7c-6.1,5.8-11.9,11.3-18,17.1
			C493.2,204.8,489.4,200.3,485.2,195.4z"/>
	</g>
</g>
</svg>
